<?xml version="1.0" encoding="UTF-8" standalone="no"?>
<!DOCTYPE svg PUBLIC "-//W3C//DTD SVG 1.1//EN" "http://www.w3.org/Graphics/SVG/1.1/DTD/svg11.dtd">
<svg width="100%" height="100%" viewBox="0 0 1400 171" version="1.1" xmlns="http://www.w3.org/2000/svg" xmlns:xlink="http://www.w3.org/1999/xlink" xml:space="preserve" xmlns:serif="http://www.serif.com/" style="fill-rule:evenodd;clip-rule:evenodd;stroke-linejoin:round;stroke-miterlimit:2;">
    <g id="Bubbles-SVG" serif:id="Bubbles SVG">
        <g transform="matrix(1.14357,0,0,1.18694,1182.6,-100.484)">
            <circle cx="111.677" cy="105.812" r="20.312" style="fill:#f8f8ff;"/>
        </g>
        <g transform="matrix(0.417152,0,0,0.432974,1309.94,-12.9099)">
            <circle cx="111.677" cy="105.812" r="20.312" style="fill:#f8f8ff;"/>
        </g>
        <g transform="matrix(1.02853,0,0,1,826.66,-6.08402e-14)">
            <circle cx="111.677" cy="105.812" r="20.312" style="fill:#f8f8ff;"/>
        </g>
        <g transform="matrix(0.329731,0,0,0.320586,875.243,44.3538)">
            <circle cx="111.677" cy="105.812" r="20.312" style="fill:#f8f8ff;"/>
        </g>
        <path d="M0,160.544C0,160.544 8.415,152.428 28.324,151.662C48.232,150.896 61.096,161.004 61.096,161.004C61.096,161.004 61.096,146.302 74.726,139.87C88.355,133.438 105.66,143.392 107.498,158.553C107.498,158.553 121.587,131.754 160.485,125.781C199.383,119.809 218.679,138.032 218.679,138.032C218.679,138.032 225.723,130.988 251.451,132.06C277.179,133.132 295.709,154.112 295.709,154.112C295.709,154.112 303.979,139.411 332.463,134.051C332.463,134.051 350.687,99.594 400.764,97.144C450.841,94.693 468.453,124.403 468.453,124.403C468.453,124.403 474.732,58.705 544.105,56.102C544.105,56.102 590.688,52.579 614.411,102.963C614.411,102.963 621.442,88.874 635.837,90.099C650.233,91.324 655.899,105.26 656.511,110.314C656.511,110.314 661.457,93.679 679.33,87.649C698.166,81.293 717.347,92.626 717.347,92.626C717.347,92.626 722.439,76.056 739.438,76.324C756.468,76.593 761.567,88.108 761.567,88.108C761.567,88.108 765.242,94.693 764.323,101.125C764.323,101.125 775.043,95.459 785.61,97.144C796.177,98.828 803.987,104.494 803.987,104.494C803.987,104.494 821.445,79.379 851.92,81.829C882.395,84.28 892.196,98.062 892.196,98.062C892.196,98.062 907.664,110.62 911.339,135.582C911.339,135.582 939.67,142.165 950.084,157.256C950.084,157.256 958.112,155.115 972.902,159.096C972.902,159.096 983.404,149.602 1004.54,156.952C1004.54,156.952 1014.19,116.982 1063.96,114.379C1113.73,111.776 1123.38,156.799 1123.38,156.799C1123.38,156.799 1128.58,152.205 1138.54,155.115C1148.49,158.024 1149.56,168.285 1149.56,168.285C1149.56,168.285 1160.93,164.456 1168.55,164.456C1168.55,164.456 1165.3,148.376 1180.77,134.287C1196.24,120.198 1213.39,127.243 1213.39,127.243C1213.39,127.243 1195.65,80.667 1230.95,62.272C1272.66,40.534 1303.28,76.912 1306.34,84.788C1306.34,84.788 1309.56,74.516 1320.13,74.976C1330.69,75.435 1333.91,88.758 1333.91,88.758C1333.91,88.758 1339.88,68.697 1368.83,70.075C1397.77,71.453 1400,92.587 1400,92.587L1400,171L0,171L0,160.544Z" style="fill:#f8f8ff;"/>
        <g transform="matrix(1,0,0,1,-2.87141,-0.7125)">
            <circle cx="111.677" cy="105.812" r="20.312" style="fill:#f8f8ff;"/>
        </g>
        <g transform="matrix(0.381416,0,0,0.410866,23.979,53.2794)">
            <circle cx="111.677" cy="105.812" r="20.312" style="fill:#f8f8ff;"/>
        </g>
    </g>
</svg>
