<?xml version="1.0" encoding="UTF-8" standalone="no"?>
<!DOCTYPE svg PUBLIC "-//W3C//DTD SVG 1.1//EN" "http://www.w3.org/Graphics/SVG/1.1/DTD/svg11.dtd">
<svg width="100%" height="100%" viewBox="0 0 870 240" version="1.1" xmlns="http://www.w3.org/2000/svg" xmlns:xlink="http://www.w3.org/1999/xlink" xml:space="preserve" xmlns:serif="http://www.serif.com/" style="fill-rule:evenodd;clip-rule:evenodd;stroke-linecap:round;stroke-linejoin:round;stroke-miterlimit:1.5;">
    <g transform="matrix(1,0,0,1,-106,-923)">
        <g id="horiz-logo" serif:id="horiz logo" transform="matrix(1.56717,0,0,1.56717,-416.361,588.524)">
            <g transform="matrix(1,0,0,1,-14.5817,-15.5023)">
                <path d="M348.341,381.271C348.341,381.271 350.795,380.317 353.093,379.194C354.037,378.733 358.834,376.588 362.781,373.43C369.132,368.349 375.965,362.271 377.84,360.664C379.796,358.987 387.069,351.869 393.741,346.859C396.636,344.684 398.077,342.759 400.353,342.053C401.63,341.657 404.252,342.053 405.047,342.198C404.254,343.022 402.658,345.829 398.847,350.325C393.787,356.294 388.165,363.121 382.789,368.173C380.496,370.328 379.889,372.898 378.485,374.993C375.233,379.847 374.793,381.76 375.407,381.266L380.453,379C384.114,375.991 386.423,374.505 390.354,370.956L391.971,370.948C390.799,375.516 390.604,375.645 388.479,379.94C388.406,380.279 388.586,381.715 388.922,381.554C389.432,381.308 390.061,380.931 390.339,380.415C394.41,372.87 395.575,368.877 399.237,361.605C400.681,358.24 402.116,354.436 404.209,352.152L414.084,342.977C421.707,335.381 430.942,329.766 438.976,325.618C444.33,322.853 447.938,317.429 452.955,315.379C454.049,314.933 455.935,315.773 455.605,316.696C453.131,317.966 449.632,319.587 446.998,321.867C437.725,328.871 429.615,336.708 423.213,347.259L425.287,346.585C431.389,341.084 437.23,335.486 441.982,329.646C444.801,328.783 446.663,328.613 449.145,329.269C449.753,331.475 448.956,334.044 448.72,336.25C444.312,343.314 440.598,350.245 435.069,356.384C430.456,361.507 422.107,366.943 417.12,371.758L419.476,371.494L435.149,360.184C441.292,353.414 446.607,347.648 451.905,343.917C454.084,343.716 455.646,344.406 456.306,346.399C455.977,352.528 452.879,358.678 450.533,365.059C449.767,367.142 448.967,369.736 448.75,372.074C453.99,364.485 458.925,356.744 463.355,348.749C463.747,343.129 464.113,337.984 465.451,336.69C468.9,330.272 473.055,325.341 478.529,321.624C479.006,321.517 479.276,321.205 479.246,320.591C479.209,317.035 479.457,314.146 479.927,311.771C483.921,305.29 488.215,297.599 491.929,293.225C494.062,294.956 493.806,298.929 494.677,301.598L496.25,300.852L496.998,299.652L498.627,300.768L501.304,309.917C506.785,314.614 507.702,325.253 508.562,336.068L517.399,347.265C517.878,351.213 517.055,356.209 516.581,361.654C516.394,363.803 516.775,375.055 516.533,377.289L520.335,374.451C520.12,370.358 519.754,357.959 521.489,354.841C522.457,353.735 523.526,352.964 524.819,352.83C527.833,354.217 529.665,356.095 531.374,358.024L542.133,358.89L554.266,367.882C555.687,368.378 557.054,371.809 557.921,371.995C560.367,374.516 562.968,375.491 565.631,376.607C556.974,369.693 550.034,358.859 542.841,351.997L530.508,351.346C523.558,348.506 517.483,343.758 513.371,336.488C512.86,335.584 512.044,334.066 511.572,333.102L506.472,304.79L505.603,299.041L505.403,294.705C509.427,296.53 516.649,304.361 525.622,313.489C528.081,315.99 531.513,318.973 534.37,321.564L535.035,325.203L541.813,325.096L547.172,329.326L556.787,340.888L568.104,351.239L568.163,349.845C566.158,346.696 563.187,343.547 560.297,340.397C560.005,335.913 562.526,333.894 565.233,330.948C566.521,329.548 568.753,327.167 570.349,325.996L572.426,327.746C573.376,325.602 574.871,323.636 576.146,322.465C576.869,323.162 577.299,324.889 576.833,326.451L573.65,332.413L572.754,339.573C572.388,340.723 571.61,341.543 571.217,342.627L571.072,346.696C575.335,343.481 579.133,339.336 582.747,334.824L582.457,326.854C584.677,323.945 589.574,317.949 593.526,310.953L593.63,320.591C594.863,321.827 595.661,323.498 596.202,325.425L595.906,329.184C594.07,334.229 590.887,338.756 586.803,342.937L583.341,349.862L576.613,366.879C580.566,365.02 584.642,363.541 589.376,364.109L594.195,365.878C598.304,368.731 602.035,376.752 607.382,378.409C604.436,374.473 601.011,365.441 597.2,361.332L597.39,355.699L599.704,345.103L599.868,340.607L598.181,336.209C598.28,334.203 598.55,331.984 599.535,329.416L596.4,320.591C596.224,317.648 596.043,314.453 596.733,313.026C599.452,313.016 601.866,315.697 603.722,319.686L606.384,326.072C606.384,326.072 616.916,330.358 619.661,332.838C630.809,342.909 641.475,353.613 651.576,363.948C654.416,366.853 657.193,369.679 659.981,372.457L671.691,381.554C658.178,365.624 643.94,347.5 628.403,333.305C625.402,330.563 623.613,327.773 620.501,325.107C618.421,323.327 615.856,322.348 613.642,320.591C606.565,314.977 599.583,308.147 592.785,302.715C589.05,305.082 585.693,307.941 582.096,310.55C579.423,312.49 576.458,314.065 573.949,316.4C572.197,318.031 571.07,321.322 568.587,323.168C566.492,323.452 565.122,324.123 562.757,325.082C560.143,326.315 557.565,327.656 555.038,329.149L551.582,329.283C549.877,326.81 547.584,324.473 544.755,322.259C542.612,322.127 540.48,322.007 538.423,321.962C532.854,316.22 528.211,310.498 523.205,304.809C520.504,301.739 517.338,298.813 514.677,295.594C513.42,294.073 511.22,292.55 509.974,291.026C508.502,289.226 507.732,286.664 506.269,284.861L494.198,276.352L478.5,291.147C474.106,296.331 469.302,300.294 462.746,302.911C460.051,303.483 456.474,304.153 451.752,304.455C448.719,305.657 445.686,307.931 442.652,310.485C440.876,310.276 438.961,309.375 436.914,307.814C432.468,311.194 428.433,315.244 423.913,318.68C420.917,320.958 417.458,322.645 414.422,324.841C401.818,333.953 389.409,342.195 376.774,351.567C375.729,352.342 374.241,353.629 373.199,354.413L348.341,381.271Z" style="fill:rgb(1,198,252);stroke:rgb(1,198,252);stroke-width:0.64px;"/>
            </g>
            <g transform="matrix(1,0,0,1,0,1)">
                <path d="M387.323,267.464L394.304,277.104L398.46,274.279L398.626,270.456C398.626,270.456 443.771,228.771 517.539,227.398C590.009,226.049 642.425,261.236 631.604,336.3L634.024,338.541C634.024,338.541 670.208,221.386 515.079,218.854C515.079,218.854 451.391,215.11 395.135,265.104L391.229,264.075L387.323,267.464Z" style="fill:rgb(1,198,252);stroke:rgb(1,198,252);stroke-width:0.64px;"/>
            </g>
            <g transform="matrix(1,0,0,1,0,1)">
                <path d="M362.49,270.966C362.49,270.966 371.133,274.29 386.425,269.636L392.575,277.947C392.575,277.947 383.646,290.632 384.324,300.811C382.021,300.33 379.719,299.344 377.416,298.012L379.018,291.862L375.907,296.988C373.686,296.051 372.17,294.196 370.801,292.407L375.289,286.091L368.308,289.582C366.432,287.797 365.06,285.256 364.318,281.77L371.964,277.781L363.654,278.944C362.326,276.754 362.115,274.007 362.49,270.966Z" style="fill:rgb(1,198,252);stroke:rgb(1,198,252);stroke-width:0.64px;"/>
            </g>
            <g transform="matrix(0.544571,0,0,0.544571,383.669,82.4552)">
                <path d="M369.368,242.223C369.368,242.223 370.474,250.308 361.283,251.84C361.283,251.84 369.708,252.52 370.389,260.35C370.389,260.35 370.73,251.669 377.878,251.329C377.878,251.329 370.474,250.818 369.368,242.223Z" style="fill:rgb(1,198,252);stroke:rgb(1,198,252);stroke-width:1.17px;"/>
            </g>
            <g transform="matrix(1,0,0,1,244.289,-25.9709)">
                <path d="M369.368,242.223C369.368,242.223 370.474,250.308 361.283,251.84C361.283,251.84 369.708,252.52 370.389,260.35C370.389,260.35 370.73,251.669 377.878,251.329C377.878,251.329 370.474,250.818 369.368,242.223Z" style="fill:rgb(1,198,252);stroke:rgb(1,198,252);stroke-width:0.64px;"/>
            </g>
            <g transform="matrix(0.721381,0,0,0.721381,258.794,61.7148)">
                <path d="M369.368,242.223C369.368,242.223 370.474,250.308 361.283,251.84C361.283,251.84 369.708,252.52 370.389,260.35C370.389,260.35 370.73,251.669 377.878,251.329C377.878,251.329 370.474,250.818 369.368,242.223Z" style="fill:rgb(1,198,252);stroke:rgb(1,198,252);stroke-width:0.88px;"/>
            </g>
            <g transform="matrix(0.5,0,0,0.5,432.792,121.38)">
                <path d="M369.368,242.223C369.368,242.223 370.474,250.308 361.283,251.84C361.283,251.84 369.708,252.52 370.389,260.35C370.389,260.35 370.73,251.669 377.878,251.329C377.878,251.329 370.474,250.818 369.368,242.223Z" style="fill:rgb(1,198,252);stroke:rgb(1,198,252);stroke-width:1.28px;"/>
            </g>
            <g transform="matrix(0.441752,0,0,0.441752,227.645,145.497)">
                <path d="M369.368,242.223C369.368,242.223 370.474,250.308 361.283,251.84C361.283,251.84 369.708,252.52 370.389,260.35C370.389,260.35 370.73,251.669 377.878,251.329C377.878,251.329 370.474,250.818 369.368,242.223Z" style="fill:rgb(1,198,252);stroke:rgb(1,198,252);stroke-width:1.44px;"/>
            </g>
            <g transform="matrix(1,0,0,1,-0.0887039,0.268704)">
                <path d="M369.368,242.223C369.368,242.223 370.474,250.308 361.283,251.84C361.283,251.84 369.708,252.52 370.389,260.35C370.389,260.35 370.73,251.669 377.878,251.329C377.878,251.329 370.474,250.818 369.368,242.223Z" style="fill:rgb(1,198,252);stroke:rgb(1,198,252);stroke-width:0.64px;"/>
            </g>
            <g transform="matrix(1.17476,0,0,1.17476,-46.4572,-17.1618)">
                <circle cx="375.142" cy="259.314" r="2.435" style="fill:rgb(1,198,252);stroke:rgb(1,198,252);stroke-width:0.54px;"/>
            </g>
            <g transform="matrix(2.01217,0,0,2.01217,-246.951,-280.638)">
                <circle cx="375.142" cy="259.314" r="2.435" style="fill:rgb(1,198,252);stroke:rgb(1,198,252);stroke-width:0.32px;"/>
            </g>
            <g transform="matrix(1.15656,0,0,1.15656,85.6725,-65.1616)">
                <circle cx="375.142" cy="259.314" r="2.435" style="fill:rgb(1,198,252);stroke:rgb(1,198,252);stroke-width:0.55px;"/>
            </g>
            <g transform="matrix(2.01217,0,0,2.01217,-145.314,-243.514)">
                <circle cx="375.142" cy="259.314" r="2.435" style="fill:rgb(1,198,252);stroke:rgb(1,198,252);stroke-width:0.32px;"/>
            </g>
            <g transform="matrix(0.781547,0,0,0.781547,103.927,90.948)">
                <circle cx="375.142" cy="259.314" r="2.435" style="fill:rgb(1,198,252);stroke:rgb(1,198,252);stroke-width:0.82px;"/>
            </g>
            <g transform="matrix(0.50848,0,0,0.50848,211.259,157.849)">
                <circle cx="375.142" cy="259.314" r="2.435" style="fill:rgb(1,198,252);stroke:rgb(1,198,252);stroke-width:1.25px;"/>
            </g>
            <g transform="matrix(6.04808,0,0,5.55797,-1474.88,-2032.4)">
                <path d="M360.158,410.334L358.541,416.756L357.434,416.756L356.31,412.264C356.264,412.073 356.235,411.864 356.224,411.637L356.208,411.637C356.194,411.849 356.161,412.055 356.109,412.255L354.981,416.756L353.85,416.756L352.199,410.334L353.273,410.334L354.343,415.036C354.387,415.233 354.415,415.439 354.426,415.654L354.446,415.654C354.457,415.502 354.496,415.296 354.562,415.036L355.771,410.334L356.78,410.334L357.899,415.072C357.937,415.233 357.966,415.424 357.985,415.645L358.002,415.645C358.01,415.496 358.042,415.299 358.096,415.054L359.146,410.334L360.158,410.334Z" style="fill:rgb(55,55,55);fill-rule:nonzero;stroke:rgb(55,55,55);stroke-width:0.24px;stroke-linecap:butt;stroke-miterlimit:2;"/>
                <path d="M365.413,416.756L364.339,416.756L363.808,415.121L361.487,415.121L360.977,416.756L359.907,416.756L362.116,410.334L363.219,410.334L365.413,416.756ZM363.549,414.253L362.73,411.691C362.705,411.608 362.679,411.473 362.651,411.288L362.635,411.288C362.61,411.458 362.583,411.593 362.553,411.691L361.742,414.253L363.549,414.253Z" style="fill:rgb(55,55,55);fill-rule:nonzero;stroke:rgb(55,55,55);stroke-width:0.24px;stroke-linecap:butt;stroke-miterlimit:2;"/>
                <path d="M365.952,416.501L365.952,415.403C366.042,415.493 366.15,415.574 366.275,415.645C366.4,415.717 366.532,415.777 366.672,415.827C366.812,415.876 366.952,415.914 367.092,415.941C367.232,415.968 367.361,415.981 367.479,415.981C367.89,415.981 368.197,415.906 368.398,415.757C368.6,415.608 368.701,415.392 368.701,415.108C368.701,414.956 368.667,414.824 368.6,414.712C368.533,414.6 368.439,414.497 368.318,414.405C368.197,414.312 368.055,414.223 367.892,414.138C367.729,414.053 367.554,413.965 367.367,413.872C367.167,413.756 366.981,413.638 366.808,413.518C366.635,413.399 366.485,413.267 366.357,413.122C366.23,412.977 366.129,412.814 366.057,412.632C365.984,412.449 365.948,412.236 365.948,411.991C365.948,411.69 366.01,411.428 366.135,411.205C366.26,410.983 366.424,410.799 366.629,410.655C366.833,410.51 367.066,410.402 367.326,410.332C367.587,410.262 367.853,410.227 368.125,410.227C368.742,410.227 369.192,410.303 369.474,410.455L369.474,411.508C369.14,411.245 368.709,411.114 368.182,411.114C368.037,411.114 367.892,411.128 367.748,411.158C367.604,411.188 367.475,411.237 367.361,411.306C367.247,411.375 367.155,411.463 367.083,411.57C367.012,411.678 366.976,411.808 366.976,411.96C366.976,412.103 367.004,412.227 367.059,412.332C367.114,412.436 367.194,412.532 367.3,412.618C367.405,412.705 367.534,412.789 367.686,412.871C367.839,412.953 368.015,413.042 368.215,413.138C368.421,413.254 368.615,413.376 368.797,413.505C368.98,413.633 369.14,413.775 369.279,413.93C369.417,414.085 369.527,414.258 369.608,414.447C369.689,414.637 369.73,414.853 369.73,415.094C369.73,415.42 369.669,415.695 369.548,415.918C369.428,416.142 369.265,416.324 369.061,416.465C368.856,416.605 368.621,416.707 368.355,416.769C368.089,416.832 367.808,416.863 367.511,416.863C367.413,416.863 367.291,416.855 367.147,416.839C367.003,416.822 366.856,416.798 366.705,416.767C366.554,416.736 366.411,416.698 366.277,416.653C366.142,416.608 366.034,416.557 365.952,416.501Z" style="fill:rgb(55,55,55);fill-rule:nonzero;stroke:rgb(55,55,55);stroke-width:0.24px;stroke-linecap:butt;stroke-miterlimit:2;"/>
                <path d="M375.659,416.756L374.585,416.756L374.055,415.121L371.734,415.121L371.223,416.756L370.153,416.756L372.363,410.334L373.466,410.334L375.659,416.756ZM373.795,414.253L372.976,411.691C372.952,411.608 372.926,411.473 372.898,411.288L372.882,411.288C372.857,411.458 372.83,411.593 372.799,411.691L371.989,414.253L373.795,414.253Z" style="fill:rgb(55,55,55);fill-rule:nonzero;stroke:rgb(55,55,55);stroke-width:0.24px;stroke-linecap:butt;stroke-miterlimit:2;"/>
                <path d="M379.889,411.239L378.193,411.239L378.193,416.756L377.214,416.756L377.214,411.239L375.523,411.239L375.523,410.334L379.889,410.334L379.889,411.239Z" style="fill:rgb(55,55,55);fill-rule:nonzero;stroke:rgb(55,55,55);stroke-width:0.24px;stroke-linecap:butt;stroke-miterlimit:2;"/>
                <path d="M384.779,416.487C384.334,416.738 383.781,416.863 383.12,416.863C382.264,416.863 381.578,416.569 381.063,415.981C380.547,415.393 380.289,414.621 380.289,413.666C380.289,412.639 380.579,411.809 381.159,411.176C381.74,410.543 382.473,410.227 383.359,410.227C383.93,410.227 384.403,410.315 384.779,410.491L384.779,411.548C384.381,411.291 383.942,411.163 383.462,411.163C382.823,411.163 382.305,411.385 381.908,411.83C381.512,412.275 381.314,412.869 381.314,413.612C381.314,414.32 381.499,414.883 381.869,415.303C382.24,415.722 382.727,415.932 383.33,415.932C383.887,415.932 384.37,415.789 384.779,415.502L384.779,416.487Z" style="fill:rgb(55,55,55);fill-rule:nonzero;stroke:rgb(55,55,55);stroke-width:0.24px;stroke-linecap:butt;stroke-miterlimit:2;"/>
                <path d="M390.639,416.756L389.655,416.756L389.655,413.97L386.877,413.97L386.877,416.756L385.898,416.756L385.898,410.334L386.877,410.334L386.877,413.035L389.655,413.035L389.655,410.334L390.639,410.334L390.639,416.756Z" style="fill:rgb(55,55,55);fill-rule:nonzero;stroke:rgb(55,55,55);stroke-width:0.24px;stroke-linecap:butt;stroke-miterlimit:2;"/>
                <path d="M359.498,425.927L358.75,425.927L358.75,421.619C358.75,421.279 358.771,420.862 358.813,420.37L358.795,420.37C358.723,420.659 358.659,420.867 358.602,420.992L356.408,425.927L356.041,425.927L353.851,421.028C353.788,420.885 353.724,420.665 353.658,420.37L353.64,420.37C353.664,420.626 353.676,421.046 353.676,421.628L353.676,425.927L352.951,425.927L352.951,419.505L353.945,419.505L355.915,423.983C356.067,424.327 356.166,424.583 356.211,424.754L356.238,424.754C356.366,424.401 356.469,424.139 356.547,423.965L358.557,419.505L359.498,419.505L359.498,425.927Z" style="fill:rgb(55,55,55);fill-rule:nonzero;stroke:rgb(55,55,55);stroke-width:0.24px;stroke-linecap:butt;stroke-miterlimit:2;"/>
                <path d="M366.156,425.927L365.324,425.927L364.643,424.127L361.92,424.127L361.28,425.927L360.443,425.927L362.905,419.505L363.685,419.505L366.156,425.927ZM364.397,423.45L363.389,420.714C363.356,420.625 363.323,420.482 363.291,420.284L363.273,420.284C363.243,420.467 363.208,420.61 363.17,420.714L362.171,423.45L364.397,423.45Z" style="fill:rgb(55,55,55);fill-rule:nonzero;stroke:rgb(55,55,55);stroke-width:0.24px;stroke-linecap:butt;stroke-miterlimit:2;"/>
                <rect x="367.101" y="419.505" width="0.752" height="6.421" style="fill:rgb(55,55,55);fill-rule:nonzero;stroke:rgb(55,55,55);stroke-width:0.24px;stroke-linecap:butt;stroke-miterlimit:2;"/>
                <path d="M369.542,425.927L369.542,419.505L371.315,419.505C373.578,419.505 374.709,420.549 374.709,422.635C374.709,423.627 374.395,424.423 373.767,425.024C373.138,425.626 372.297,425.927 371.243,425.927L369.542,425.927ZM370.294,420.186L370.294,425.246L371.252,425.246C372.094,425.246 372.75,425.021 373.218,424.57C373.687,424.119 373.921,423.48 373.921,422.653C373.921,421.008 373.047,420.186 371.297,420.186L370.294,420.186Z" style="fill:rgb(55,55,55);fill-rule:nonzero;stroke:rgb(55,55,55);stroke-width:0.24px;stroke-linecap:butt;stroke-miterlimit:2;"/>
                <path d="M375.672,425.667L375.672,424.78C375.774,424.87 375.895,424.951 376.037,425.022C376.179,425.094 376.328,425.154 376.485,425.204C376.642,425.253 376.799,425.291 376.957,425.318C377.116,425.345 377.262,425.358 377.396,425.358C377.859,425.358 378.205,425.272 378.433,425.101C378.661,424.929 378.776,424.682 378.776,424.359C378.776,424.186 378.737,424.036 378.661,423.907C378.585,423.779 378.48,423.662 378.346,423.556C378.211,423.45 378.052,423.348 377.869,423.251C377.685,423.154 377.487,423.052 377.275,422.944C377.051,422.831 376.843,422.716 376.648,422.6C376.454,422.483 376.286,422.355 376.142,422.215C375.999,422.074 375.886,421.915 375.804,421.738C375.722,421.56 375.681,421.352 375.681,421.113C375.681,420.82 375.745,420.566 375.874,420.349C376.002,420.133 376.171,419.955 376.38,419.814C376.589,419.674 376.827,419.57 377.094,419.501C377.361,419.432 377.634,419.398 377.911,419.398C378.544,419.398 379.005,419.474 379.295,419.626L379.295,420.473C378.916,420.21 378.429,420.079 377.835,420.079C377.671,420.079 377.507,420.096 377.343,420.13C377.178,420.164 377.032,420.22 376.904,420.298C376.775,420.376 376.671,420.476 376.59,420.598C376.51,420.72 376.469,420.87 376.469,421.046C376.469,421.21 376.5,421.352 376.561,421.471C376.622,421.591 376.713,421.7 376.832,421.798C376.951,421.897 377.097,421.992 377.269,422.085C377.44,422.177 377.638,422.279 377.862,422.389C378.092,422.503 378.31,422.622 378.516,422.747C378.722,422.873 378.902,423.012 379.058,423.164C379.213,423.316 379.336,423.485 379.427,423.67C379.518,423.855 379.564,424.067 379.564,424.306C379.564,424.622 379.502,424.89 379.378,425.11C379.254,425.329 379.087,425.507 378.876,425.645C378.666,425.782 378.423,425.881 378.149,425.942C377.874,426.004 377.584,426.034 377.28,426.034C377.178,426.034 377.053,426.026 376.904,426.01C376.754,425.993 376.602,425.969 376.447,425.938C376.292,425.907 376.145,425.868 376.006,425.822C375.867,425.775 375.756,425.724 375.672,425.667Z" style="fill:rgb(55,55,55);fill-rule:nonzero;stroke:rgb(55,55,55);stroke-width:0.24px;stroke-linecap:butt;stroke-miterlimit:2;"/>
            </g>
        </g>
    </g>
</svg>
