<?xml version="1.0" encoding="UTF-8" standalone="no"?><!DOCTYPE svg PUBLIC "-//W3C//DTD SVG 1.1//EN" "http://www.w3.org/Graphics/SVG/1.1/DTD/svg11.dtd"><svg width="100%" height="100%" viewBox="0 0 2219 1260" version="1.1" xmlns="http://www.w3.org/2000/svg" xmlns:xlink="http://www.w3.org/1999/xlink" xml:space="preserve" xmlns:serif="http://www.serif.com/" style="fill-rule:evenodd;clip-rule:evenodd;stroke-linecap:round;stroke-linejoin:round;stroke-miterlimit:1.5;"><g id="Black-Logo-White-BG-Square" serif:id="Black Logo White BG Square"><g id="vert-logo-black" serif:id="vert logo black"><g id="wasatch"><path d="M201.281,825.937c-0,-0 -85.313,133.452 -59.185,112.548c42.029,-33.626 77.495,-60.54 89.902,-71.176c12.95,-11.103 61.084,-58.209 105.242,-91.374c19.161,-14.391 28.699,-27.135 43.764,-31.804c8.453,-2.62 25.806,0.001 31.067,0.96c-5.248,5.454 -15.808,24.031 -41.035,53.787c-33.491,39.505 -70.703,84.691 -106.283,118.13c-8.692,8.169 16.305,-2.192 42.913,-5.088c19.848,-2.161 35.268,-5.507 48.919,-7.185c11.117,-1.368 11.551,-20.315 17.031,-31.199c9.561,-22.27 19.055,-47.451 32.907,-62.569l65.364,-60.722c50.449,-50.272 111.572,-87.438 164.751,-114.896c35.433,-18.295 59.312,-54.196 92.522,-67.764c7.235,-2.956 19.721,2.608 17.537,8.715c-16.373,8.408 -39.531,19.136 -56.966,34.222c-61.375,46.357 -115.052,98.232 -157.423,168.064l13.723,-4.459c40.388,-36.412 79.05,-73.466 110.498,-112.113c18.658,-5.716 30.986,-6.836 47.409,-2.495c4.024,14.601 -1.249,31.605 -2.813,46.205c-29.171,46.753 -53.752,92.622 -90.35,133.26c-11.204,12.44 -25.737,25.161 -41.278,37.855c-26.812,21.9 22.903,0.936 22.903,0.936l18.906,-13.642c40.657,-44.812 75.833,-82.971 110.902,-107.667c14.423,-1.333 24.761,3.235 29.126,16.43c-1.627,30.336 -13.506,60.752 -25.886,91.826c-2.707,6.793 -0.963,7.121 7.577,5.611c4.629,-0.819 13.764,4.089 19.544,-5.119c15.842,-25.238 31.035,-50.8 45.422,-76.766c2.597,-37.2 5.014,-71.247 13.875,-79.811c22.823,-42.481 50.324,-75.12 86.558,-99.719c3.152,-0.707 4.942,-2.776 4.741,-6.836c-0.245,-23.538 1.402,-42.66 4.509,-58.375c26.438,-42.898 54.859,-93.802 79.437,-122.75c14.115,11.458 12.424,37.747 18.186,55.413l10.415,-4.933l4.949,-7.946l10.783,7.391l17.715,60.548c36.278,31.091 42.351,101.508 48.04,173.084l58.49,74.112c2.429,20.043 -0.208,44.17 -2.984,70.588c-0.843,8.021 15.169,28.909 19.819,-3.931c1.344,-9.494 7.657,-11.886 10.232,-16.514c6.412,-7.323 13.487,-12.424 22.045,-13.309c19.942,9.175 32.069,21.607 43.382,34.378l71.212,5.73c0,-0 31.562,5.637 41.15,0.816c4.187,-2.106 7.775,1.696 -3.308,-11.088c-11.071,-12.771 -22.069,-24.775 -33.157,-35.353l-81.627,-4.306c-45.999,-18.796 -86.211,-50.225 -113.427,-98.342c-3.382,-5.98 -8.779,-16.027 -11.902,-22.411l-33.756,-187.386l-5.75,-38.048l-1.327,-28.7c26.635,12.077 74.432,63.912 133.823,124.324c16.272,16.551 38.992,36.295 57.899,53.446l4.402,24.083l44.862,-0.707l35.469,27.998l63.635,76.524l74.906,68.509l0.387,-9.228c-13.266,-20.842 -32.933,-41.685 -52.063,-62.527c-1.928,-29.684 14.757,-43.047 32.675,-62.543c8.519,-9.269 23.292,-25.027 33.857,-32.777l13.751,11.582c6.286,-14.188 16.183,-27.201 24.615,-34.95c4.785,4.613 7.636,16.046 4.553,26.381l-21.073,39.464l-5.925,47.384c-2.424,7.616 -7.574,13.043 -10.178,20.213l-0.954,26.934c28.212,-21.281 53.35,-48.711 77.269,-78.579l-1.92,-52.748c14.697,-19.251 47.109,-58.941 73.263,-105.246l0.688,63.795c8.161,8.178 13.443,19.235 17.026,31.991l-1.965,24.883c-12.148,33.392 -33.219,63.352 -60.244,91.021l-22.919,45.838l-22.786,57.635l115.042,2.686l0.73,-21.686l15.319,-70.133l1.084,-29.76l-11.165,-29.108c0.655,-13.276 2.445,-27.962 8.964,-44.957l-20.751,-58.41c-1.165,-19.479 -2.367,-40.63 2.202,-50.075c18,-0.061 33.977,17.683 46.255,44.086l17.625,42.264c0,0 69.703,28.365 87.875,44.782c64.931,58.661 127.397,120.569 187.017,181.199c2.426,2.468 4.848,4.933 7.265,7.396c5.676,5.785 72.783,41.094 32.522,-6.093c-53.972,-63.259 -110.05,-125.601 -168.948,-179.412c-19.863,-18.147 -31.7,-36.616 -52.299,-54.256c-13.764,-11.787 -30.742,-18.267 -45.394,-29.891c-46.841,-37.16 -93.052,-82.365 -138.044,-118.315c-24.727,15.664 -46.945,34.587 -70.748,51.857c-17.695,12.839 -37.316,23.264 -53.921,38.719c-11.6,10.796 -19.058,32.573 -35.491,44.795c-13.869,1.875 -22.931,6.321 -38.588,12.667c-17.3,8.16 -34.361,17.038 -51.089,26.915l-22.875,0.891c-11.283,-16.369 -26.461,-31.84 -45.183,-46.492c-14.188,-0.874 -28.295,-1.666 -41.909,-1.965c-36.862,-38.003 -67.59,-75.873 -100.723,-113.53c-17.878,-20.318 -38.832,-39.683 -56.446,-60.991c-8.319,-10.064 -22.881,-20.143 -31.128,-30.231c-9.741,-11.915 -14.833,-28.874 -24.521,-40.808l-79.889,-56.315l-103.903,97.924c-29.084,34.31 -60.88,60.536 -104.268,77.858c-17.838,3.785 -41.515,8.223 -72.765,10.22c-20.076,7.954 -40.152,23.006 -60.228,39.913c-11.759,-1.388 -24.433,-7.351 -37.98,-17.68c-29.428,22.369 -56.132,49.179 -86.046,71.917c-19.834,15.075 -42.723,26.247 -62.819,40.775c-83.424,60.312 -165.552,114.862 -249.178,176.89c-6.921,5.133 -16.765,13.647 -23.664,18.841Z" style="fill:#01c6fc;stroke:#01c6fc;stroke-width:3.13px;"/><path d="M391.276,359.674l46.205,63.806l27.503,-18.702l1.1,-25.303c-0,0 298.799,-275.891 787.044,-284.982c479.65,-8.931 826.572,223.961 754.948,720.78l16.021,14.836c0,0 239.49,-775.408 -787.251,-792.167c0,-0 -421.529,-24.778 -793.868,306.113l-25.854,-6.813l-25.848,22.432Z" style="fill:#01c6fc;stroke:#01c6fc;stroke-width:3.13px;"/><path d="M226.915,382.852c-0,0 57.205,22.003 158.415,-8.8l40.704,55.005c-0,-0 -59.098,83.96 -54.609,151.331c-15.241,-3.183 -30.481,-9.711 -45.721,-18.526l10.605,-40.704l-20.594,33.927c-14.696,-6.205 -24.731,-18.481 -33.795,-30.319l29.703,-41.804l-46.205,23.102c-12.416,-11.811 -21.496,-28.628 -26.402,-51.705l50.605,-26.402l-55.006,7.701c-8.783,-14.494 -10.184,-32.679 -7.7,-52.806Z" style="fill:#01c6fc;stroke:#01c6fc;stroke-width:3.13px;"/><path d="M1698.4,1.599c-0,0 3.987,29.14 -29.14,34.661c0,-0 30.367,2.454 32.82,30.673c0,0 1.227,-31.287 26.993,-32.513c-0,-0 -26.686,-1.841 -30.673,-32.821Z" style="fill:#01c6fc;stroke:#01c6fc;stroke-width:3.13px;"/><path d="M1889.29,14.105c0,0 7.323,53.509 -53.509,63.648c0,-0 55.762,4.506 60.268,56.325c0,0 2.253,-57.452 49.567,-59.705c-0,0 -49.003,-3.379 -56.326,-60.268Z" style="fill:#01c6fc;stroke:#01c6fc;stroke-width:3.13px;"/><path d="M1304.16,147.787c-0,-0 5.282,38.6 -38.601,45.914c0,-0 40.226,3.25 43.476,40.632c0,0 1.626,-41.445 35.757,-43.07c-0,-0 -35.35,-2.438 -40.632,-43.476Z" style="fill:#01c6fc;stroke:#01c6fc;stroke-width:3.12px;"/><path d="M1914.57,187.775c0,0 3.661,26.755 -26.755,31.824c0,0 27.882,2.253 30.135,28.163c-0,-0 1.126,-28.726 24.783,-29.853c-0,0 -24.502,-1.689 -28.163,-30.134Z" style="fill:#01c6fc;stroke:#01c6fc;stroke-width:3.13px;"/><path d="M414.381,254.009c-0,0 3.234,23.638 -23.638,28.117c-0,-0 24.633,1.99 26.623,24.882c0,-0 0.996,-25.38 21.896,-26.375c0,-0 -21.647,-1.493 -24.881,-26.624Z" style="fill:#01c6fc;stroke:#01c6fc;stroke-width:3.13px;"/><path d="M271.85,187.775c-0,0 7.322,53.509 -53.51,63.648c0,-0 55.763,4.506 60.269,56.325c-0,0 2.253,-57.452 49.566,-59.705c0,0 -49.003,-3.379 -56.325,-60.268Z" style="fill:#01c6fc;stroke:#01c6fc;stroke-width:3.13px;"/><circle cx="437.093" cy="485.474" r="18.931" style="fill:#01c6fc;stroke:#01c6fc;stroke-width:3.13px;"/><circle cx="1189.31" cy="178.862" r="32.426" style="fill:#01c6fc;stroke:#01c6fc;stroke-width:3.13px;"/><circle cx="1266.41" cy="136.538" r="18.638" style="fill:#01c6fc;stroke:#01c6fc;stroke-width:3.13px;"/><circle cx="1862.01" cy="424.573" r="32.426" style="fill:#01c6fc;stroke:#01c6fc;stroke-width:3.13px;"/><circle cx="456.103" cy="526.134" r="12.594" style="fill:#01c6fc;stroke:#01c6fc;stroke-width:3.13px;"/><circle cx="488.49" cy="500.26" r="8.194" style="fill:#01c6fc;stroke:#01c6fc;stroke-width:3.13px;"/></g></g><g><path d="M1.339,979.985c0,0 282.95,-77.585 697.129,-116.67c385.395,-36.37 977.626,-25.211 1519.65,33.018l-0,27.576c3.019,11.071 -532.964,-108.417 -1519.65,-35.14c-204.246,15.169 -450.269,51.013 -697.129,91.216Z" style="fill:#373737;stroke:#373737;stroke-width:0.87px;"/><path d="M1.339,1257.03c0,-0 299.066,-70.886 713.246,-109.971c385.395,-36.369 960.719,-43.04 1502.75,15.189l0,27.576c3.02,11.072 -548.56,-88.421 -1502.75,-17.31c-204.242,15.221 -466.386,44.312 -713.246,84.516Z" style="fill:#373737;stroke:#373737;stroke-width:0.87px;"/><g><path d="M257.076,977.45l-17.7,185.091l-44.282,7.285l-48.161,-108.956c-2.544,-5.68 -4.584,-12.162 -6.121,-19.447l-0.495,0.081c0.587,8.204 0.607,15.018 0.06,20.444l-11.46,118.765l-46.138,7.59l-75.814,-169.707l43.664,-7.183l44.42,114.018c1.9,4.854 3.796,11.487 5.688,19.899l0.742,-0.122c-0.715,-6.404 -0.659,-13.527 0.168,-21.371l12.809,-122.924l42.798,-7.041l48.665,114.336c1.791,4.194 3.784,10.388 5.979,18.581l0.494,-0.082c-0.741,-6.568 -0.961,-13.308 -0.658,-20.218l5.017,-122.405l40.325,-6.634Z" style="fill:#373737;fill-rule:nonzero;stroke:#373737;stroke-width:6.94px;stroke-linecap:butt;stroke-miterlimit:2;"/><path d="M465.809,1132.15l-43.756,5.704l-17.848,-38l-63.396,8.264l-7.386,41.291l-43.507,5.671l41.65,-186.713l47.609,-6.207l86.634,169.99Zm-74.822,-61.925l-26.954,-57.42c-1.992,-4.291 -3.683,-9.506 -5.073,-15.646l-0.995,0.129c0.266,5.275 -0.094,10.59 -1.082,15.944l-11.516,62.94l45.62,-5.947Z" style="fill:#373737;fill-rule:nonzero;stroke:#373737;stroke-width:6.94px;stroke-linecap:butt;stroke-miterlimit:2;"/><path d="M479.198,1123.94l-4.313,-39.882c7.885,5.284 16.228,8.983 25.031,11.1c8.803,2.116 17.525,2.707 26.166,1.772c5.068,-0.548 9.443,-1.483 13.125,-2.806c3.682,-1.323 6.702,-2.931 9.061,-4.826c2.359,-1.894 4.042,-4.009 5.051,-6.346c1.008,-2.336 1.373,-4.793 1.094,-7.368c-0.377,-3.49 -1.711,-6.498 -4.002,-9.024c-2.291,-2.526 -5.286,-4.766 -8.985,-6.72c-3.7,-1.953 -8.035,-3.754 -13.004,-5.402c-4.97,-1.648 -10.318,-3.298 -16.044,-4.948c-14.588,-4.307 -25.763,-10.285 -33.525,-17.936c-7.762,-7.65 -12.286,-17.416 -13.571,-29.298c-1.006,-9.305 -0.001,-17.505 3.014,-24.598c3.016,-7.092 7.51,-13.147 13.482,-18.164c5.972,-5.017 13.085,-9.002 21.34,-11.954c8.255,-2.952 17.118,-4.94 26.59,-5.964c9.306,-1.007 17.613,-1.338 24.921,-0.993c7.308,0.344 14.121,1.352 20.438,3.022l4.03,37.265c-3.216,-1.754 -6.675,-3.229 -10.377,-4.426c-3.702,-1.197 -7.478,-2.112 -11.329,-2.747c-3.852,-0.634 -7.653,-1 -11.404,-1.099c-3.751,-0.099 -7.289,0.032 -10.612,0.391c-4.57,0.494 -8.677,1.38 -12.322,2.657c-3.644,1.276 -6.669,2.843 -9.074,4.701c-2.405,1.857 -4.195,3.963 -5.369,6.317c-1.175,2.355 -1.614,4.903 -1.317,7.645c0.323,2.991 1.402,5.585 3.237,7.782c1.835,2.198 4.321,4.198 7.458,6.003c3.137,1.804 6.893,3.499 11.268,5.086c4.374,1.586 9.295,3.176 14.764,4.77c7.468,2.219 14.231,4.703 20.286,7.452c6.055,2.75 11.348,6.023 15.877,9.82c4.53,3.798 8.169,8.301 10.918,13.509c2.749,5.209 4.514,11.427 5.296,18.656c1.078,9.97 0.093,18.546 -2.955,25.726c-3.048,7.181 -7.586,13.219 -13.613,18.116c-6.027,4.897 -13.242,8.724 -21.643,11.482c-8.402,2.758 -17.381,4.654 -26.936,5.687c-9.804,1.06 -19.22,1.238 -28.249,0.533c-9.028,-0.705 -16.963,-2.369 -23.803,-4.991Z" style="fill:#373737;fill-rule:nonzero;stroke:#373737;stroke-width:6.94px;stroke-linecap:butt;stroke-miterlimit:2;"/><path d="M788.833,1100.92l-43.96,3.831l-16.21,-38.727l-63.691,5.551l-9.141,40.938l-43.709,3.809l49.579,-184.765l47.831,-4.169l79.301,173.532Zm-72.111,-65.062l-24.479,-58.518c-1.807,-4.372 -3.274,-9.655 -4.402,-15.849l-0.999,0.087c0.041,5.282 -0.546,10.576 -1.761,15.883l-14.192,62.392l45.833,-3.995Z" style="fill:#373737;fill-rule:nonzero;stroke:#373737;stroke-width:6.94px;stroke-linecap:butt;stroke-miterlimit:2;"/><path d="M927.591,944.822l-51.161,3.36l9.62,146.478l-40.529,2.661l-9.619,-146.478l-50.911,3.344l-2.161,-32.898l142.601,-9.366l2.16,32.899Z" style="fill:#373737;fill-rule:nonzero;stroke:#373737;stroke-width:6.94px;stroke-linecap:butt;stroke-miterlimit:2;"/><path d="M1089.37,1077.86c-12.818,6.942 -29.789,10.893 -50.91,11.854c-27.55,1.254 -49.583,-5.858 -66.099,-21.336c-16.516,-15.478 -25.388,-36.7 -26.615,-63.666c-1.307,-28.719 6.504,-52.415 23.431,-71.088c16.928,-18.673 39.542,-28.654 67.844,-29.942c17.532,-0.798 32.409,0.742 44.632,4.62l1.773,38.946c-12.349,-6.633 -26.204,-9.6 -41.565,-8.901c-16.864,0.768 -30.231,6.688 -40.101,17.762c-9.869,11.074 -14.392,25.669 -13.567,43.785c0.79,17.365 6.304,30.981 16.541,40.847c10.237,9.865 23.62,14.422 40.15,13.67c15.779,-0.718 30.047,-5.216 42.805,-13.493l1.681,36.942Z" style="fill:#373737;fill-rule:nonzero;stroke:#373737;stroke-width:6.94px;stroke-linecap:butt;stroke-miterlimit:2;"/><path d="M1276.84,1079.75l-40.607,0.869l-1.566,-73.192l-74.445,1.593l1.566,73.192l-40.481,0.866l-3.846,-179.721l40.482,-0.867l1.533,71.688l74.446,-1.592l-1.534,-71.689l40.606,-0.868l3.846,179.721Z" style="fill:#373737;fill-rule:nonzero;stroke:#373737;stroke-width:6.94px;stroke-linecap:butt;stroke-miterlimit:2;"/><path d="M1593.36,1083.18l-39.981,-0.799l2.15,-107.535c0.232,-11.614 0.99,-24.43 2.273,-38.447l-1.002,-0.02c-2.31,10.987 -4.348,18.887 -6.116,23.7l-44.555,121.357l-33.088,-0.661l-40.446,-121.803c-1.104,-3.282 -2.817,-11.675 -5.138,-25.179l-1.128,-0.023c0.732,17.735 0.964,33.287 0.697,46.656l-1.988,99.389l-36.471,-0.729l3.593,-179.727l59.283,1.185l34.592,107.267c2.754,8.581 4.713,17.188 5.878,25.821l0.752,0.015c2.455,-9.898 5.009,-18.498 7.663,-25.801l38.847,-105.548l57.779,1.156l-3.594,179.726Z" style="fill:#373737;fill-rule:nonzero;stroke:#373737;stroke-width:6.94px;stroke-linecap:butt;stroke-miterlimit:2;"/><path d="M1792.44,1093.47l-44.065,-2.316l-10.671,-40.605l-63.844,-3.355l-14.742,39.27l-43.815,-2.303l74.78,-176.081l47.946,2.52l54.411,182.87Zm-62.368,-74.453l-16.107,-61.353c-1.182,-4.581 -1.901,-10.016 -2.156,-16.306l-1.002,-0.053c-0.693,5.236 -2.011,10.397 -3.952,15.484l-22.726,59.813l45.943,2.415Z" style="fill:#373737;fill-rule:nonzero;stroke:#373737;stroke-width:6.94px;stroke-linecap:butt;stroke-miterlimit:2;"/><path d="M1883.11,920.392l-2.307,31.255l-15.002,-1.108l-8.619,116.767l15.002,1.107l-2.307,31.254l-70.385,-5.195l2.307,-31.254l15.002,1.107l8.619,-116.766l-15.002,-1.108l2.307,-31.254l70.385,5.195Z" style="fill:#373737;fill-rule:nonzero;stroke:#373737;stroke-width:6.94px;stroke-linecap:butt;stroke-miterlimit:2;"/><path d="M1895.94,1101.36l17.524,-178.906l63.378,6.208c63.545,6.224 92.47,38.405 86.775,96.544c-2.729,27.863 -13.579,49.262 -32.55,64.198c-18.971,14.937 -42.887,20.991 -71.749,18.164l-63.378,-6.208Zm54.608,-142.147l-11.108,113.407l19.961,1.955c17.467,1.711 31.683,-2.186 42.648,-11.693c10.966,-9.506 17.333,-23.284 19.101,-41.332c1.67,-17.051 -1.944,-30.945 -10.843,-41.684c-8.899,-10.738 -22.248,-16.979 -40.047,-18.722l-19.712,-1.931Z" style="fill:#373737;fill-rule:nonzero;stroke:#373737;stroke-width:6.94px;stroke-linecap:butt;stroke-miterlimit:2;"/><path d="M2076.63,1112.69l5.071,-39.792c6.442,6.971 13.697,12.508 21.767,16.612c8.071,4.104 16.417,6.705 25.038,7.804c5.057,0.644 9.53,0.751 13.418,0.32c3.888,-0.431 7.2,-1.294 9.934,-2.588c2.735,-1.294 4.864,-2.961 6.387,-4.999c1.524,-2.039 2.449,-4.343 2.777,-6.913c0.444,-3.481 -0.155,-6.717 -1.796,-9.706c-1.641,-2.99 -4.033,-5.864 -7.178,-8.624c-3.145,-2.76 -6.942,-5.518 -11.393,-8.276c-4.45,-2.758 -9.269,-5.605 -14.455,-8.54c-13.188,-7.579 -22.668,-15.99 -28.44,-25.235c-5.772,-9.244 -7.902,-19.794 -6.391,-31.649c1.183,-9.285 4.065,-17.027 8.646,-23.225c4.582,-6.198 10.359,-11.043 17.334,-14.535c6.974,-3.491 14.818,-5.714 23.533,-6.667c8.715,-0.954 17.798,-0.828 27.248,0.377c9.285,1.183 17.442,2.791 24.47,4.824c7.029,2.034 13.421,4.596 19.177,7.689l-4.739,37.181c-2.721,-2.453 -5.742,-4.691 -9.065,-6.716c-3.322,-2.024 -6.783,-3.792 -10.381,-5.303c-3.599,-1.512 -7.211,-2.752 -10.836,-3.72c-3.626,-0.967 -7.097,-1.662 -10.413,-2.085c-4.56,-0.581 -8.76,-0.674 -12.602,-0.279c-3.841,0.395 -7.147,1.216 -9.918,2.464c-2.771,1.247 -5.001,2.88 -6.69,4.897c-1.689,2.017 -2.708,4.394 -3.057,7.129c-0.38,2.985 0.066,5.759 1.34,8.322c1.274,2.564 3.227,5.087 5.86,7.571c2.632,2.484 5.891,5.005 9.777,7.565c3.886,2.559 8.303,5.249 13.251,8.071c6.749,3.893 12.749,7.88 18,11.961c5.251,4.081 9.638,8.495 13.161,13.241c3.523,4.745 6.017,9.971 7.48,15.675c1.463,5.705 1.735,12.164 0.816,19.376c-1.268,9.948 -4.219,18.06 -8.852,24.336c-4.633,6.275 -10.449,11.094 -17.449,14.457c-7,3.362 -14.906,5.408 -23.719,6.138c-8.813,0.731 -17.986,0.488 -27.52,-0.727c-9.782,-1.247 -18.982,-3.262 -27.6,-6.045c-8.617,-2.784 -15.948,-6.245 -21.991,-10.386Z" style="fill:#373737;fill-rule:nonzero;stroke:#373737;stroke-width:6.94px;stroke-linecap:butt;stroke-miterlimit:2;"/></g></g></g></svg>