<?xml version="1.0" encoding="UTF-8" standalone="no"?><!DOCTYPE svg PUBLIC "-//W3C//DTD SVG 1.1//EN" "http://www.w3.org/Graphics/SVG/1.1/DTD/svg11.dtd"><svg width="100%" height="100%" viewBox="0 0 1816 1029" version="1.1" xmlns="http://www.w3.org/2000/svg" xmlns:xlink="http://www.w3.org/1999/xlink" xml:space="preserve" xmlns:serif="http://www.serif.com/" style="fill-rule:evenodd;clip-rule:evenodd;stroke-linecap:round;stroke-linejoin:round;stroke-miterlimit:1.5;"><g id="Black-Logo-White-BG-Square" serif:id="Black Logo White BG Square"><g id="vert-logo-black" serif:id="vert logo black"><g id="wasatch"><path d="M166.203,675.385c0,-0 -69.696,109.023 -48.351,91.946c34.336,-27.471 63.31,-49.458 73.446,-58.148c10.58,-9.07 49.903,-47.553 85.978,-74.647c15.653,-11.757 23.444,-22.168 35.752,-25.983c6.906,-2.14 21.082,0.001 25.381,0.785c-4.288,4.455 -12.915,19.632 -33.524,43.941c-27.361,32.273 -57.761,69.188 -86.828,96.506c-7.101,6.674 13.32,-1.791 35.058,-4.157c16.215,-1.765 28.812,-4.498 39.964,-5.87c9.082,-1.117 9.437,-16.596 13.914,-25.487c7.811,-18.194 15.566,-38.765 26.883,-51.116l53.399,-49.607c41.214,-41.07 91.148,-71.432 134.593,-93.864c28.947,-14.946 48.455,-44.276 75.586,-55.36c5.91,-2.414 16.111,2.131 14.327,7.12c-13.376,6.869 -32.296,15.633 -46.539,27.958c-50.139,37.871 -93.992,80.25 -128.606,137.3l11.21,-3.644c32.996,-29.746 64.58,-60.017 90.272,-91.59c15.242,-4.67 25.314,-5.585 38.731,-2.038c3.287,11.928 -1.021,25.819 -2.298,37.747c-23.832,38.195 -43.913,75.667 -73.811,108.866c-9.154,10.164 -21.027,20.555 -33.723,30.926c-21.904,17.891 18.711,0.765 18.711,0.765l15.445,-11.145c33.215,-36.609 61.952,-67.783 90.601,-87.958c11.783,-1.09 20.229,2.642 23.795,13.422c-1.329,24.783 -11.033,49.631 -21.148,75.017c-2.211,5.55 -0.787,5.817 6.19,4.584c3.782,-0.669 11.245,3.34 15.967,-4.182c12.942,-20.618 25.354,-41.501 37.107,-62.714c2.122,-30.39 4.096,-58.205 11.336,-65.202c18.645,-34.704 41.111,-61.368 70.713,-81.464c2.575,-0.578 4.037,-2.268 3.873,-5.585c-0.2,-19.23 1.145,-34.851 3.684,-47.69c21.598,-35.045 44.817,-76.631 64.895,-100.28c11.532,9.36 10.151,30.837 14.857,45.269l8.509,-4.03l4.044,-6.491l8.808,6.037l14.472,49.465c29.638,25.4 34.599,82.927 39.247,141.401l47.783,60.546c1.985,16.374 -0.169,36.085 -2.437,57.667c-0.689,6.552 12.392,23.617 16.19,-3.212c1.099,-7.756 6.256,-9.71 8.36,-13.491c5.238,-5.982 11.018,-10.15 18.009,-10.873c16.292,7.496 26.199,17.652 35.441,28.086l58.177,4.68c0,0 25.784,4.606 33.617,0.667c3.421,-1.72 6.352,1.386 -2.702,-9.058c-9.045,-10.433 -18.029,-20.24 -27.088,-28.882l-66.685,-3.517c-37.579,-15.355 -70.43,-41.032 -92.664,-80.341c-2.763,-4.885 -7.172,-13.093 -9.724,-18.309l-27.576,-153.084l-4.698,-31.083l-1.083,-23.447c21.759,9.866 60.807,52.213 109.326,101.567c13.293,13.521 31.854,29.65 47.3,43.662l3.597,19.675l36.65,-0.578l28.976,22.873l51.987,62.517l61.194,55.967l0.316,-7.538c-10.837,-17.027 -26.905,-34.055 -42.533,-51.082c-1.575,-24.25 12.056,-35.167 26.694,-51.094c6.96,-7.572 19.029,-20.445 27.659,-26.777l11.234,9.461c5.136,-11.59 13.221,-22.222 20.11,-28.552c3.909,3.769 6.238,13.109 3.719,21.553l-17.216,32.239l-4.84,38.711c-1.981,6.222 -6.188,10.656 -8.315,16.512l-0.779,22.005c23.048,-17.386 43.584,-39.795 63.125,-64.195l-1.569,-43.093c12.007,-15.727 38.486,-48.152 59.852,-85.981l0.562,52.118c6.667,6.681 10.982,15.714 13.909,26.135l-1.605,20.328c-9.924,27.279 -27.138,51.755 -49.216,74.359l-18.723,37.447l-18.615,47.085l93.983,2.195l0.596,-17.717l12.515,-57.295l0.886,-24.312l-9.122,-23.78c0.535,-10.846 1.998,-22.844 7.324,-36.728l-16.953,-47.717c-0.952,-15.913 -1.934,-33.193 1.799,-40.909c14.705,-0.05 27.758,14.446 37.788,36.016l14.399,34.527c-0,0 56.943,23.173 71.789,36.585c53.045,47.923 104.077,98.498 152.783,148.03c1.982,2.016 3.961,4.03 5.935,6.042c4.638,4.726 59.46,33.572 26.57,-4.978c-44.093,-51.678 -89.906,-102.609 -138.022,-146.57c-16.227,-14.825 -25.898,-29.913 -42.726,-44.324c-11.245,-9.63 -25.115,-14.923 -37.085,-24.419c-38.267,-30.359 -76.019,-67.288 -112.775,-96.658c-20.201,12.797 -38.352,28.256 -57.797,42.364c-14.456,10.489 -30.485,19.007 -44.051,31.632c-9.476,8.82 -15.57,26.611 -28.994,36.595c-11.33,1.532 -18.734,5.164 -31.525,10.348c-14.133,6.667 -28.071,13.92 -41.737,21.989l-18.687,0.728c-9.218,-13.373 -21.617,-26.012 -36.912,-37.982c-11.591,-0.713 -23.116,-1.361 -34.238,-1.605c-30.115,-31.046 -55.218,-61.985 -82.286,-92.748c-14.605,-16.599 -31.723,-32.419 -46.113,-49.827c-6.796,-8.221 -18.693,-16.455 -25.431,-24.697c-7.957,-9.734 -12.117,-23.588 -20.032,-33.338l-65.265,-46.006l-84.884,79.998c-23.759,28.03 -49.735,49.455 -85.181,63.606c-14.573,3.093 -33.916,6.718 -59.445,8.35c-16.401,6.498 -32.802,18.794 -49.203,32.607c-9.607,-1.134 -19.961,-6.006 -31.028,-14.444c-24.041,18.274 -45.857,40.177 -70.296,58.752c-16.203,12.316 -34.902,21.443 -51.319,33.312c-68.153,49.271 -135.248,93.836 -203.566,144.51c-5.654,4.193 -13.696,11.149 -19.333,15.392Z" style="fill:#fff;stroke:#fff;stroke-width:3.13px;"/><path d="M321.42,294.471l37.747,52.127l22.468,-15.279l0.899,-20.671c-0,0 244.104,-225.389 642.975,-232.816c391.849,-7.296 675.267,182.965 616.754,588.841l13.089,12.12c-0,0 195.65,-633.469 -643.144,-647.16c-0,-0 -344.368,-20.243 -648.55,250.079l-21.122,-5.567l-21.116,18.326Z" style="fill:#fff;stroke:#fff;stroke-width:3.13px;"/><path d="M187.145,313.407c-0,0 46.734,17.975 129.417,-7.19l33.253,44.937c0,-0 -48.28,68.591 -44.613,123.629c-12.45,-2.6 -24.901,-7.932 -37.351,-15.134l8.664,-33.253l-16.825,27.717c-12.006,-5.07 -20.204,-15.098 -27.609,-24.769l24.266,-34.152l-37.746,18.873c-10.144,-9.649 -17.562,-23.388 -21.57,-42.24l41.342,-21.57l-44.937,6.291c-7.175,-11.84 -8.32,-26.696 -6.291,-43.139Z" style="fill:#fff;stroke:#fff;stroke-width:3.13px;"/><path d="M1389.28,1.943c-0,-0 3.257,23.805 -23.806,28.316c0,-0 24.808,2.004 26.813,25.058c-0,0 1.002,-25.559 22.051,-26.562c0,0 -21.801,-1.503 -25.058,-26.812Z" style="fill:#fff;stroke:#fff;stroke-width:3.13px;"/><path d="M1545.22,12.159c-0,0 5.982,43.715 -43.714,51.997c-0,0 45.554,3.682 49.236,46.015c-0,0 1.84,-46.935 40.493,-48.776c-0,0 -40.033,-2.76 -46.015,-49.236Z" style="fill:#fff;stroke:#fff;stroke-width:3.13px;"/><path d="M1067.2,121.37c0,0 4.316,31.535 -31.534,37.51c-0,-0 32.862,2.656 35.518,33.194c-0,0 1.327,-33.858 29.211,-35.186c-0,0 -28.879,-1.991 -33.195,-35.518Z" style="fill:#fff;stroke:#fff;stroke-width:3.13px;"/><path d="M1565.88,154.039c-0,-0 2.991,21.857 -21.857,25.998c-0,0 22.777,1.841 24.618,23.008c-0,-0 0.92,-23.468 20.246,-24.388c0,0 -20.016,-1.38 -23.007,-24.618Z" style="fill:#fff;stroke:#fff;stroke-width:3.13px;"/><path d="M340.295,208.149c0,-0 2.643,19.311 -19.311,22.97c0,-0 20.124,1.626 21.75,20.327c0,-0 0.813,-20.734 17.888,-21.547c0,0 -17.684,-1.22 -20.327,-21.75Z" style="fill:#fff;stroke:#fff;stroke-width:3.13px;"/><path d="M223.855,154.039c-0,-0 5.982,43.714 -43.715,51.997c0,-0 45.555,3.681 49.236,46.015c0,-0 1.841,-46.935 40.494,-48.776c-0,0 -40.033,-2.761 -46.015,-49.236Z" style="fill:#fff;stroke:#fff;stroke-width:3.13px;"/><circle cx="358.85" cy="397.244" r="15.466" style="fill:#fff;stroke:#fff;stroke-width:3.13px;"/><circle cx="973.371" cy="146.757" r="26.49" style="fill:#fff;stroke:#fff;stroke-width:3.13px;"/><circle cx="1036.36" cy="112.181" r="15.226" style="fill:#fff;stroke:#fff;stroke-width:3.13px;"/><circle cx="1522.93" cy="347.49" r="26.49" style="fill:#fff;stroke:#fff;stroke-width:3.13px;"/><circle cx="374.38" cy="430.461" r="10.289" style="fill:#fff;stroke:#fff;stroke-width:3.13px;"/><circle cx="400.839" cy="409.323" r="6.694" style="fill:#fff;stroke:#fff;stroke-width:3.13px;"/></g></g><g><path d="M2.861,801.234c0,0 231.156,-63.383 569.519,-95.314c314.848,-29.711 798.671,-20.596 1241.48,26.974l-0,22.529c2.467,9.045 -435.404,-88.571 -1241.48,-28.707c-166.859,12.391 -367.847,41.674 -569.519,74.518Z" style="fill:#fff;stroke:#fff;stroke-width:0.87px;"/><path d="M2.861,1027.57c0,-0 244.322,-57.91 582.685,-89.841c314.849,-29.711 784.859,-35.161 1227.67,12.409l0,22.529c2.467,9.045 -448.145,-72.236 -1227.67,-14.142c-166.855,12.434 -381.013,36.201 -582.685,69.045Z" style="fill:#fff;stroke:#fff;stroke-width:0.87px;"/><g><path d="M211.785,799.163l-14.459,151.21l-36.177,5.951l-39.345,-89.011c-2.078,-4.64 -3.745,-9.936 -5.001,-15.887l-0.404,0.066c0.48,6.702 0.496,12.269 0.049,16.702l-9.362,97.024l-37.693,6.201l-61.936,-138.642l35.672,-5.868l36.289,93.147c1.551,3.965 3.1,9.384 4.646,16.257l0.606,-0.1c-0.584,-5.232 -0.538,-11.051 0.138,-17.459l10.464,-100.423l34.964,-5.752l39.756,93.407c1.464,3.426 3.092,8.486 4.885,15.179l0.404,-0.066c-0.606,-5.367 -0.785,-10.872 -0.538,-16.518l4.099,-99.998l32.943,-5.42Z" style="fill:#fff;fill-rule:nonzero;stroke:#fff;stroke-width:6.94px;stroke-linecap:butt;stroke-miterlimit:2;"/><path d="M382.309,925.547l-35.746,4.66l-14.581,-31.045l-51.791,6.752l-6.034,33.732l-35.543,4.634l34.026,-152.536l38.894,-5.07l70.775,138.873Zm-61.125,-50.59l-22.02,-46.909c-1.628,-3.506 -3.009,-7.766 -4.145,-12.782l-0.812,0.106c0.217,4.309 -0.078,8.651 -0.884,13.025l-9.409,51.419l37.27,-4.859Z" style="fill:#fff;fill-rule:nonzero;stroke:#fff;stroke-width:6.94px;stroke-linecap:butt;stroke-miterlimit:2;"/><path d="M393.248,918.835l-3.524,-32.582c6.441,4.317 13.258,7.339 20.449,9.068c7.192,1.729 14.317,2.212 21.376,1.448c4.141,-0.448 7.715,-1.212 10.723,-2.293c3.008,-1.08 5.475,-2.394 7.402,-3.942c1.927,-1.547 3.303,-3.275 4.126,-5.184c0.824,-1.909 1.122,-3.916 0.894,-6.02c-0.308,-2.851 -1.398,-5.308 -3.269,-7.372c-1.871,-2.064 -4.318,-3.894 -7.341,-5.49c-3.022,-1.596 -6.563,-3.067 -10.623,-4.413c-4.06,-1.347 -8.429,-2.694 -13.107,-4.042c-11.918,-3.518 -21.047,-8.403 -27.388,-14.653c-6.342,-6.25 -10.037,-14.228 -11.087,-23.935c-0.822,-7.602 -0.001,-14.3 2.462,-20.095c2.464,-5.794 6.135,-10.741 11.014,-14.84c4.879,-4.098 10.69,-7.353 17.434,-9.765c6.744,-2.412 13.985,-4.036 21.723,-4.873c7.602,-0.822 14.388,-1.092 20.359,-0.811c5.971,0.282 11.536,1.105 16.697,2.469l3.292,30.444c-2.627,-1.433 -5.453,-2.638 -8.477,-3.616c-3.024,-0.978 -6.11,-1.726 -9.256,-2.244c-3.146,-0.518 -6.252,-0.817 -9.316,-0.898c-3.065,-0.081 -5.955,0.026 -8.67,0.32c-3.733,0.403 -7.089,1.127 -10.066,2.17c-2.977,1.043 -5.449,2.323 -7.413,3.84c-1.965,1.517 -3.427,3.238 -4.387,5.161c-0.959,1.924 -1.318,4.006 -1.075,6.246c0.264,2.443 1.146,4.563 2.644,6.358c1.499,1.795 3.53,3.429 6.093,4.903c2.563,1.474 5.631,2.859 9.205,4.155c3.574,1.296 7.594,2.595 12.061,3.898c6.102,1.812 11.627,3.841 16.574,6.087c4.946,2.247 9.27,4.921 12.971,8.023c3.7,3.102 6.673,6.781 8.919,11.036c2.245,4.255 3.687,9.335 4.326,15.241c0.881,8.145 0.076,15.151 -2.414,21.017c-2.49,5.866 -6.197,10.799 -11.121,14.799c-4.924,4.001 -10.818,7.128 -17.682,9.381c-6.863,2.253 -14.198,3.801 -22.004,4.646c-8.01,0.866 -15.703,1.011 -23.079,0.435c-7.375,-0.576 -13.857,-1.935 -19.445,-4.077Z" style="fill:#fff;fill-rule:nonzero;stroke:#fff;stroke-width:6.94px;stroke-linecap:butt;stroke-miterlimit:2;"/><path d="M646.203,900.035l-35.912,3.13l-13.243,-31.639l-52.033,4.536l-7.467,33.444l-35.708,3.112l40.504,-150.944l39.075,-3.406l64.784,141.767Zm-58.911,-53.152l-19.998,-47.806c-1.476,-3.572 -2.675,-7.888 -3.595,-12.948l-0.816,0.071c0.033,4.315 -0.447,8.64 -1.439,12.975l-11.594,50.971l37.442,-3.263Z" style="fill:#fff;fill-rule:nonzero;stroke:#fff;stroke-width:6.94px;stroke-linecap:butt;stroke-miterlimit:2;"/><path d="M759.562,772.507l-41.796,2.745l7.859,119.665l-33.11,2.175l-7.859,-119.665l-41.591,2.731l-1.765,-26.876l116.497,-7.651l1.765,26.876Z" style="fill:#fff;fill-rule:nonzero;stroke:#fff;stroke-width:6.94px;stroke-linecap:butt;stroke-miterlimit:2;"/><path d="M891.729,881.192c-10.472,5.67 -24.336,8.898 -41.591,9.684c-22.508,1.024 -40.507,-4.786 -54,-17.431c-13.492,-12.645 -20.74,-29.982 -21.743,-52.012c-1.067,-23.462 5.313,-42.82 19.142,-58.075c13.829,-15.255 32.304,-23.409 55.425,-24.461c14.323,-0.652 26.477,0.606 36.463,3.774l1.448,31.817c-10.089,-5.419 -21.407,-7.843 -33.957,-7.271c-13.777,0.627 -24.697,5.463 -32.76,14.51c-8.063,9.047 -11.758,20.97 -11.084,35.77c0.646,14.187 5.15,25.31 13.513,33.37c8.363,8.06 19.297,11.782 32.801,11.168c12.89,-0.587 24.547,-4.261 34.969,-11.023l1.374,30.18Z" style="fill:#fff;fill-rule:nonzero;stroke:#fff;stroke-width:6.94px;stroke-linecap:butt;stroke-miterlimit:2;"/><path d="M1044.88,882.74l-33.174,0.709l-1.279,-59.794l-60.818,1.302l1.279,59.794l-33.071,0.707l-3.142,-146.823l33.071,-0.708l1.254,58.566l60.818,-1.301l-1.253,-58.566l33.173,-0.71l3.142,146.824Z" style="fill:#fff;fill-rule:nonzero;stroke:#fff;stroke-width:6.94px;stroke-linecap:butt;stroke-miterlimit:2;"/><path d="M1303.46,885.541l-32.662,-0.653l1.756,-87.851c0.19,-9.488 0.809,-19.958 1.858,-31.409l-0.82,-0.016c-1.886,8.976 -3.552,15.43 -4.996,19.362l-36.399,99.142l-27.031,-0.54l-33.042,-99.507c-0.903,-2.681 -2.302,-9.538 -4.198,-20.57l-0.922,-0.019c0.598,14.489 0.788,27.195 0.57,38.116l-1.624,81.196l-29.795,-0.596l2.935,-146.828l48.431,0.969l28.26,87.631c2.25,7.011 3.851,14.042 4.802,21.095l0.615,0.012c2.005,-8.086 4.092,-15.112 6.26,-21.078l31.736,-86.227l47.202,0.944l-2.936,146.827Z" style="fill:#fff;fill-rule:nonzero;stroke:#fff;stroke-width:6.94px;stroke-linecap:butt;stroke-miterlimit:2;"/><path d="M1466.1,893.946l-35.999,-1.892l-8.717,-33.172l-52.158,-2.741l-12.043,32.082l-35.795,-1.881l61.091,-143.85l39.17,2.059l44.451,149.395Zm-50.952,-60.824l-13.159,-50.122c-0.965,-3.743 -1.552,-8.183 -1.761,-13.322l-0.818,-0.043c-0.567,4.278 -1.643,8.494 -3.229,12.65l-18.565,48.864l37.532,1.973Z" style="fill:#fff;fill-rule:nonzero;stroke:#fff;stroke-width:6.94px;stroke-linecap:butt;stroke-miterlimit:2;"/><path d="M1540.17,752.55l-1.884,25.533l-12.256,-0.904l-7.042,95.392l12.256,0.904l-1.884,25.533l-57.501,-4.244l1.884,-25.533l12.256,0.904l7.042,-95.392l-12.256,-0.904l1.885,-25.533l57.5,4.244Z" style="fill:#fff;fill-rule:nonzero;stroke:#fff;stroke-width:6.94px;stroke-linecap:butt;stroke-miterlimit:2;"/><path d="M1550.65,900.388l14.316,-146.157l51.777,5.071c51.913,5.085 75.543,31.376 70.891,78.872c-2.23,22.762 -11.094,40.245 -26.592,52.447c-15.499,12.202 -35.037,17.148 -58.615,14.839l-51.777,-5.072Zm44.612,-116.127l-9.075,92.648l16.307,1.597c14.27,1.398 25.883,-1.786 34.842,-9.552c8.958,-7.767 14.16,-19.022 15.604,-33.767c1.364,-13.929 -1.588,-25.28 -8.858,-34.053c-7.27,-8.773 -18.176,-13.871 -32.717,-15.296l-16.103,-1.577Z" style="fill:#fff;fill-rule:nonzero;stroke:#fff;stroke-width:6.94px;stroke-linecap:butt;stroke-miterlimit:2;"/><path d="M1698.27,909.648l4.144,-32.508c5.262,5.695 11.189,10.219 17.782,13.571c6.593,3.353 13.412,5.478 20.455,6.376c4.131,0.526 7.785,0.613 10.962,0.261c3.176,-0.352 5.881,-1.057 8.115,-2.114c2.234,-1.058 3.974,-2.419 5.218,-4.084c1.245,-1.665 2.001,-3.548 2.269,-5.647c0.362,-2.845 -0.127,-5.488 -1.467,-7.93c-1.341,-2.442 -3.296,-4.791 -5.865,-7.045c-2.569,-2.255 -5.671,-4.509 -9.307,-6.762c-3.636,-2.252 -7.572,-4.578 -11.809,-6.976c-10.774,-6.191 -18.518,-13.063 -23.234,-20.616c-4.715,-7.552 -6.456,-16.171 -5.222,-25.856c0.967,-7.585 3.322,-13.909 7.065,-18.973c3.742,-5.063 8.462,-9.021 14.16,-11.874c5.697,-2.853 12.106,-4.669 19.226,-5.447c7.119,-0.779 14.539,-0.677 22.26,0.308c7.585,0.966 14.249,2.28 19.991,3.941c5.741,1.661 10.963,3.755 15.666,6.281l-3.872,30.375c-2.222,-2.003 -4.691,-3.832 -7.405,-5.486c-2.714,-1.654 -5.541,-3.098 -8.481,-4.333c-2.94,-1.235 -5.891,-2.248 -8.853,-3.038c-2.962,-0.791 -5.797,-1.359 -8.506,-1.704c-3.725,-0.475 -7.157,-0.551 -10.295,-0.228c-3.138,0.323 -5.839,0.994 -8.103,2.013c-2.263,1.019 -4.085,2.353 -5.465,4.001c-1.38,1.648 -2.213,3.589 -2.498,5.824c-0.31,2.438 0.055,4.704 1.095,6.798c1.041,2.095 2.637,4.156 4.787,6.185c2.15,2.03 4.813,4.09 7.987,6.181c3.175,2.09 6.784,4.288 10.826,6.593c5.514,3.18 10.415,6.438 14.705,9.772c4.29,3.334 7.874,6.94 10.752,10.817c2.878,3.877 4.915,8.146 6.111,12.806c1.195,4.661 1.417,9.937 0.666,15.829c-1.036,8.127 -3.446,14.754 -7.231,19.881c-3.785,5.127 -8.537,9.064 -14.255,11.811c-5.719,2.746 -12.178,4.418 -19.378,5.015c-7.199,0.596 -14.693,0.398 -22.482,-0.595c-7.991,-1.018 -15.507,-2.664 -22.547,-4.938c-7.04,-2.274 -13.029,-5.102 -17.967,-8.485Z" style="fill:#fff;fill-rule:nonzero;stroke:#fff;stroke-width:6.94px;stroke-linecap:butt;stroke-miterlimit:2;"/></g></g></g></svg>