<?xml version="1.0" encoding="utf-8"?><svg version="1.1" id="Layer_1" xmlns="http://www.w3.org/2000/svg" xmlns:xlink="http://www.w3.org/1999/xlink" x="0px" y="0px" viewBox="0 0 115.77 122.88" style="enable-background:new 0 0 115.77 122.88" xml:space="preserve"><style type="text/css">.st0{fill-rule:evenodd;clip-rule:evenodd;}</style><g><path fill="#01b3e4" class="st0" d="M39.44,0h44.12c3.36,0,6.4,1.37,8.62,3.58c2.21,2.21,3.58,5.25,3.58,8.62v18.2h-3.5V15.33h-61.5v23.39h-3.51 V12.2c0-3.36,1.37-6.4,3.58-8.62C33.03,1.37,36.09,0,39.44,0L39.44,0L39.44,0L39.44,0z M25.94,53.38c2.17-2.78-1.95-6.05-4.15-3.42 l-0.04,0.05c-7.46,8.76-7.79,19.15-0.71,28.25c2.16,2.83,6.43-0.47,4.26-3.29l-0.01-0.03c-4.37-5.63-5.69-12.16-1.38-18.38 C24.55,55.69,25.25,54.68,25.94,53.38L25.94,53.38L25.94,53.38L25.94,53.38z M14.38,44.16c2.36-2.62-1.56-6.23-3.98-3.65 l-0.04,0.04C-3.38,55.43-3.44,72.17,10.1,87.22l0.01,0.01l0,0l0.04,0.04c2.5,2.58,6.31-1.13,3.97-3.67 C2.3,70.43,2.6,57.01,14.16,44.36C14.25,44.29,14.32,44.24,14.38,44.16L14.38,44.16L14.38,44.16L14.38,44.16z M108.69,76.71H94.82 v3.47h13.87V76.71L108.69,76.71L108.69,76.71z M61.77,67.61c-2.03,0-3.82,0.96-4.95,2.48c-1.13-1.51-2.94-2.48-4.98-2.48 c-3.43,0-6.18,2.77-6.18,6.18c0,3.43,2.77,6.21,6.18,6.21c2.03,0,3.85-0.99,4.98-2.5c1.13,1.51,2.93,2.5,4.95,2.5 c3.42,0,6.21-2.78,6.21-6.21C67.98,70.37,65.19,67.61,61.77,67.61L61.77,67.61L61.77,67.61L61.77,67.61L61.77,67.61z M43.2,86.06 c-0.49,0-0.94-0.21-1.25-0.54c-0.33-0.31-0.55-0.75-0.55-1.25v-23.6l0,0h71.91v23.6c0,0.49-0.19,0.94-0.52,1.25 c-0.33,0.33-0.78,0.54-1.27,0.54C88.56,86.06,66.16,86.06,43.2,86.06L43.2,86.06L43.2,86.06z M111.52,88.51 c1.18,0,2.25-0.47,3-1.26c0.77-0.76,1.25-1.81,1.25-2.99V43.5c0-1.16-0.47-2.22-1.23-3c-0.77-0.77-1.84-1.25-3.02-1.25l0,0H43.2 c-1.16,0-2.25,0.47-3,1.25c-0.77,0.75-1.26,1.84-1.26,3v40.78c0,1.15,0.47,2.22,1.26,2.99c0.75,0.76,1.84,1.26,3,1.26 C66.19,88.51,88.54,88.51,111.52,88.51L111.52,88.51L111.52,88.51z M113.32,48.42H41.4v-4.94c0-0.47,0.21-0.92,0.55-1.25 c0.33-0.33,0.77-0.55,1.25-0.55h68.33c0.49,0,0.94,0.21,1.27,0.55c0.33,0.33,0.52,0.77,0.52,1.25V48.42L113.32,48.42L113.32,48.42 L113.32,48.42L113.32,48.42z M89.91,76.71H75.79v3.47h14.11V76.71L89.91,76.71L89.91,76.71z M95.76,97.38v13.31 c0,3.36-1.37,6.4-3.58,8.62c-2.21,2.21-5.25,3.58-8.62,3.58H39.44c-3.36,0-6.4-1.37-8.62-3.58c-2.21-2.21-3.58-5.25-3.58-8.62 V89.04h3.51v16.74l0,0h61.5v-8.4H95.76L95.76,97.38z M61.5,109.61c2.75,0,4.99,2.24,4.99,4.99c0,2.75-2.24,4.99-4.99,4.99 c-2.75,0-4.99-2.24-4.99-4.99C56.51,111.85,58.74,109.61,61.5,109.61L61.5,109.61L61.5,109.61L61.5,109.61z"/></g></svg>